<svg width="61" height="61" viewBox="0 0 61 61" fill="none" xmlns="http://www.w3.org/2000/svg">
<g filter="url(#filter0_d_1_443)">
<path d="M43.7117 37.2248L7.94271 52.7886C5.61112 53.7166 3.294 51.4194 4.20165 49.08L19.8324 12.748" fill="#FFB636"/>
<path d="M4.20139 49.088L5.44362 46.2007C5.55015 46.0382 5.65635 45.8756 5.76298 45.7133C11.9416 36.3007 18.2108 26.9456 24.6941 17.7397L31.9635 25.191C26.4786 28.9565 8.66902 47.3611 4.93858 52.243C4.12652 51.496 3.73186 50.2983 4.20139 49.088Z" fill="#FFD469"/>
<path d="M35.745 21.0109C42.3803 27.6462 46.0095 34.775 43.851 36.9336C41.6926 39.092 34.5638 35.4629 27.9284 28.8275C21.293 22.1922 17.6639 15.0635 19.8223 12.9049C21.9808 10.7463 29.1096 14.3755 35.745 21.0109Z" fill="#A06C33"/>
<path d="M19.7943 34.217C19.7943 34.8619 19.2715 35.3847 18.6267 35.3847C17.9818 35.3847 17.459 34.8619 17.459 34.217C17.459 33.5721 17.9817 33.0493 18.6267 33.0493C19.2716 33.0493 19.7943 33.5721 19.7943 34.217Z" fill="#F7F9AA"/>
<path d="M56.9646 21.9463C56.9646 22.8719 56.2143 23.6222 55.2888 23.6222C54.3632 23.6222 53.613 22.8719 53.613 21.9463C53.613 21.0208 54.3632 20.2705 55.2888 20.2705C56.2143 20.2705 56.9646 21.0208 56.9646 21.9463ZM45.7735 44.2616C44.8479 44.2616 44.0977 45.0119 44.0977 45.9375C44.0977 46.863 44.8479 47.6133 45.7735 47.6133C46.699 47.6133 47.4493 46.863 47.4493 45.9375C47.4493 45.0119 46.6989 44.2616 45.7735 44.2616Z" fill="#FFB636"/>
<path d="M41.2851 7.61324C41.1413 8.58568 40.513 9.44462 39.5612 9.96983C38.904 10.3324 38.1312 10.5209 37.3291 10.5209C37.0766 10.5209 36.8213 10.5022 36.5656 10.4645C35.9984 10.3806 35.4306 10.4662 35.008 10.6993C34.8186 10.8038 34.4931 11.0324 34.4402 11.3899C34.3875 11.7475 34.6329 12.0605 34.7838 12.2153C35.1119 12.5516 35.6125 12.7925 36.1622 12.8825C36.1773 12.8841 36.1923 12.8847 36.2075 12.8869C38.5266 13.2298 40.1831 15.0667 39.8999 16.9819C39.7562 17.9544 39.1279 18.8134 38.1759 19.3386C37.5188 19.7012 36.7461 19.8897 35.944 19.8897C35.6915 19.8897 35.4362 19.871 35.1805 19.8332C34.6134 19.7492 34.0454 19.8348 33.6228 20.068C33.4334 20.1725 33.1079 20.4011 33.055 20.7587C32.9703 21.3325 33.6748 22.09 34.8218 22.2595C35.4458 22.3518 35.877 22.9325 35.7847 23.5566C35.7008 24.1241 35.2131 24.5319 34.6562 24.5319C34.6005 24.5319 34.5443 24.5278 34.4877 24.5195C32.1685 24.1766 30.5121 22.3396 30.7952 20.4245C30.9389 19.452 31.5672 18.593 32.5192 18.0678C33.3833 17.5911 34.4471 17.4154 35.5147 17.5732C36.082 17.657 36.6496 17.5715 37.0723 17.3384C37.2618 17.2339 37.5872 17.0053 37.6401 16.6477C37.7235 16.0833 37.0418 15.3421 35.9277 15.1568C35.9095 15.155 35.8911 15.1535 35.8728 15.1508C34.8053 14.9929 33.8377 14.5171 33.1486 13.8107C32.3894 13.0325 32.0364 12.0284 32.1803 11.0558C32.324 10.0833 32.9523 9.22439 33.9042 8.69917C34.7683 8.22245 35.8321 8.04673 36.8997 8.20453C37.4667 8.28821 38.0348 8.20282 38.4573 7.96971C38.6468 7.86523 38.9722 7.63663 39.0251 7.27908C39.0779 6.92154 38.8325 6.60851 38.6815 6.45372C38.3445 6.1083 37.8258 5.862 37.2583 5.77821C36.6343 5.68596 36.2032 5.10529 36.2954 4.48117C36.3876 3.85705 36.9685 3.42645 37.5925 3.51817C38.66 3.67608 39.6276 4.15194 40.3167 4.85834C41.076 5.63661 41.4289 6.6407 41.2851 7.61324Z" fill="#BEA4FF"/>
<path d="M11.888 16.2102C11.888 17.259 11.0377 18.1093 9.98891 18.1093C8.9401 18.1093 8.08984 17.259 8.08984 16.2102C8.08984 15.1614 8.9401 14.3111 9.98891 14.3111C11.0377 14.3111 11.888 15.1613 11.888 16.2102ZM45.8342 14.0161C44.6225 14.0161 43.6403 14.9984 43.6403 16.2101C43.6403 17.4217 44.6226 18.404 45.8342 18.404C47.0459 18.404 48.0282 17.4217 48.0282 16.2101C48.0282 14.9984 47.046 14.0161 45.8342 14.0161ZM26.241 41.5493C25.0292 41.5493 24.047 42.5316 24.047 43.7433C24.047 44.9549 25.0293 45.9372 26.241 45.9372C27.4528 45.9372 28.435 44.9549 28.435 43.7433C28.435 42.5316 27.4528 41.5493 26.241 41.5493ZM55.3447 31.5036C55.6765 30.8611 55.4246 30.0712 54.7821 29.7394C54.526 29.6073 54.2202 29.4318 53.8662 29.2287C50.756 27.4444 44.2847 23.7318 36.6647 29.8841C36.102 30.3382 36.0143 31.1626 36.4685 31.7252C36.9226 32.2878 37.7469 32.3758 38.3096 31.9214C44.5352 26.895 49.5607 29.7775 52.5632 31.5C52.9282 31.7094 53.273 31.9072 53.5805 32.066C53.7726 32.1652 53.9779 32.2122 54.1802 32.2122C54.6544 32.2122 55.1121 31.9539 55.3447 31.5036Z" fill="#FF6E83"/>
<path d="M49.7528 5.81205C49.7528 6.45698 49.23 6.97972 48.5851 6.97972C47.9402 6.97972 47.4175 6.45698 47.4175 5.81205C47.4175 5.16712 47.9402 4.64437 48.5851 4.64437C49.2301 4.64426 49.7528 5.16712 49.7528 5.81205ZM8.07588 0.353741C7.43095 0.353741 6.9082 0.876486 6.9082 1.52142C6.9082 2.16635 7.43095 2.68909 8.07588 2.68909C8.72081 2.68909 9.24366 2.16635 9.24366 1.52142C9.24366 0.876486 8.72081 0.353741 8.07588 0.353741ZM26.3855 15.5927C26.5175 15.3338 26.6804 15.0389 26.8528 14.7267C27.7275 13.1422 28.9253 10.9722 28.9974 8.44487C29.0839 5.40859 27.5026 2.65187 24.2975 0.251295C23.7411 -0.165464 22.9524 -0.0520757 22.536 0.504139C22.1193 1.06046 22.2325 1.84914 22.7888 2.26568C25.3366 4.17387 26.5445 6.17163 26.4817 8.3731C26.427 10.2903 25.4415 12.0758 24.6495 13.5103C24.467 13.8411 24.2945 14.1533 24.1439 14.4487C23.828 15.0677 24.0737 15.8256 24.6927 16.1415C24.8759 16.2351 25.0713 16.2794 25.2637 16.2794C25.7215 16.2794 26.1631 16.0286 26.3855 15.5927Z" fill="#59CAFC"/>
</g>
<defs>
<filter id="filter0_d_1_443" x="0" y="0" width="60.9648" height="60.9995" filterUnits="userSpaceOnUse" color-interpolation-filters="sRGB">
<feFlood flood-opacity="0" result="BackgroundImageFix"/>
<feColorMatrix in="SourceAlpha" type="matrix" values="0 0 0 0 0 0 0 0 0 0 0 0 0 0 0 0 0 0 127 0" result="hardAlpha"/>
<feOffset dy="4"/>
<feGaussianBlur stdDeviation="2"/>
<feComposite in2="hardAlpha" operator="out"/>
<feColorMatrix type="matrix" values="0 0 0 0 0 0 0 0 0 0 0 0 0 0 0 0 0 0 0.25 0"/>
<feBlend mode="normal" in2="BackgroundImageFix" result="effect1_dropShadow_1_443"/>
<feBlend mode="normal" in="SourceGraphic" in2="effect1_dropShadow_1_443" result="shape"/>
</filter>
</defs>
</svg>
